<svg xmlns="http://www.w3.org/2000/svg" xml:space="preserve" width="256" height="256"><path d="m84.598 189.653-67.953-39.805v-12.37l57.14-32.885 6.491 9.052-52.757 30.017 60.575 35.759zm97.62-6.915-6.494-9.056 52.757-30.017-29.51-16.792 9.634-5.714 30.75 16.32v12.373z" style="font-size:36.9236px;font-family:&quot;Sarasa Term TC&quot;;-inkscape-font-specification:&quot;Sarasa Term TC&quot;;fill:#0078d6;stroke:#0078d6;stroke-width:6.19649;stroke-dasharray:none;stroke-opacity:.564706"/><path fill="red" d="m99.331 76.984 37.088 62.889 23.56-22.568 29.018 4.318 35.858-18.537-24.673-61.7-23.207 34.66-54.136-24.982Z" style="fill:#d60000;fill-opacity:1;stroke:#ff0101;stroke-width:3.82232;stroke-opacity:.564706"/><path d="M160.25 218.864 85.98 93.034l8.822-9.267 78.154 132.406Z" style="font-size:36.9236px;fill:gray;stroke:gray;stroke-width:5.99999;stroke-dasharray:none;stroke-opacity:.564706"/><path d="m82.317 86.69 8.764-9.955-6.977-12.503-8.578 11.36z" style="font-size:36.9236px;fill:gray;fill-opacity:1;stroke:gray;stroke-width:5.99999;stroke-dasharray:none;stroke-opacity:.564706"/></svg>